<svg width="22" height="22" viewBox="0 0 22 22" fill="none" xmlns="http://www.w3.org/2000/svg">
<path d="M21.3127 10.6565C21.3117 9.74581 21.053 8.85403 20.5663 8.08433C20.0796 7.31462 19.385 6.69847 18.5627 6.30717V6.18771C18.5619 5.30189 18.2759 4.43984 17.7472 3.72914C17.2184 3.01843 16.4749 2.49682 15.6267 2.24149C14.7784 1.98615 13.8705 2.01065 13.0373 2.31137C12.2041 2.61209 11.4898 3.17304 11.0002 3.91123C10.5105 3.17304 9.79621 2.61209 8.96299 2.31137C8.12976 2.01065 7.22187 1.98615 6.37364 2.24149C5.52541 2.49682 4.78191 3.01843 4.25314 3.72914C3.72438 4.43984 3.43845 5.30189 3.43766 6.18771V6.30717C2.61466 6.6974 1.91931 7.31316 1.4324 8.08291C0.945486 8.85266 0.687012 9.74478 0.687012 10.6556C0.687012 11.5664 0.945486 12.4585 1.4324 13.2283C1.91931 13.998 2.61466 14.6138 3.43766 15.004V15.1252C3.43845 16.011 3.72438 16.8731 4.25314 17.5838C4.78191 18.2945 5.52541 18.8161 6.37364 19.0714C7.22187 19.3268 8.12976 19.3023 8.96299 19.0016C9.79621 18.7008 10.5105 18.1399 11.0002 17.4017C11.4898 18.1399 12.2041 18.7008 13.0373 19.0016C13.8705 19.3023 14.7784 19.3268 15.6267 19.0714C16.4749 18.8161 17.2184 18.2945 17.7472 17.5838C18.2759 16.8731 18.5619 16.011 18.5627 15.1252V15.004C19.3848 14.613 20.0794 13.9972 20.5661 13.2278C21.0528 12.4584 21.3116 11.5669 21.3127 10.6565ZM7.56266 17.8752C6.88456 17.8751 6.23041 17.6245 5.72585 17.1715C5.22128 16.7185 4.90188 16.095 4.82898 15.4208C5.05131 15.4526 5.27558 15.4686 5.50016 15.469H6.18766C6.36999 15.469 6.54486 15.3965 6.67379 15.2676C6.80272 15.1387 6.87516 14.9638 6.87516 14.7815C6.87516 14.5991 6.80272 14.4243 6.67379 14.2953C6.54486 14.1664 6.36999 14.094 6.18766 14.094H5.50016C4.68853 14.0949 3.90274 13.8086 3.28192 13.2858C2.6611 12.763 2.24528 12.0374 2.1081 11.2375C1.97091 10.4375 2.12121 9.61484 2.53237 8.91507C2.94353 8.21529 3.58904 7.68357 4.35461 7.41404C4.48856 7.36662 4.60453 7.27885 4.68655 7.16281C4.76858 7.04678 4.81263 6.90817 4.81266 6.76607V6.18771C4.81266 5.45837 5.10239 4.7589 5.61811 4.24317C6.13384 3.72744 6.83331 3.43771 7.56266 3.43771C8.292 3.43771 8.99147 3.72744 9.5072 4.24317C10.0229 4.7589 10.3127 5.45837 10.3127 6.18771V12.0538C9.55771 11.3748 8.57803 10.9995 7.56266 11.0002C7.38032 11.0002 7.20545 11.0726 7.07652 11.2016C6.94759 11.3305 6.87516 11.5054 6.87516 11.6877C6.87516 11.87 6.94759 12.0449 7.07652 12.1739C7.20545 12.3028 7.38032 12.3752 7.56266 12.3752C8.292 12.3752 8.99147 12.6649 9.5072 13.1807C10.0229 13.6964 10.3127 14.3959 10.3127 15.1252C10.3127 15.8546 10.0229 16.554 9.5072 17.0698C8.99147 17.5855 8.292 17.8752 7.56266 17.8752ZM16.5002 14.094H15.8127C15.6303 14.094 15.4555 14.1664 15.3265 14.2953C15.1976 14.4243 15.1252 14.5991 15.1252 14.7815C15.1252 14.9638 15.1976 15.1387 15.3265 15.2676C15.4555 15.3965 15.6303 15.469 15.8127 15.469H16.5002C16.7247 15.4686 16.949 15.4526 17.1713 15.4208C17.1142 15.9491 16.9053 16.4494 16.5699 16.8615C16.2344 17.2735 15.7868 17.5795 15.2811 17.7425C14.7754 17.9056 14.2333 17.9186 13.7204 17.7801C13.2075 17.6416 12.7456 17.3575 12.3907 16.9621C12.0358 16.5667 11.8031 16.077 11.7206 15.5521C11.6381 15.0273 11.7095 14.4897 11.926 14.0045C12.1425 13.5194 12.4949 13.1073 12.9407 12.8181C13.3864 12.529 13.9063 12.3751 14.4377 12.3752C14.62 12.3752 14.7949 12.3028 14.9238 12.1739C15.0527 12.0449 15.1252 11.87 15.1252 11.6877C15.1252 11.5054 15.0527 11.3305 14.9238 11.2016C14.7949 11.0726 14.62 11.0002 14.4377 11.0002C13.4223 10.9995 12.4426 11.3748 11.6877 12.0538V6.18771C11.6877 5.45837 11.9774 4.7589 12.4931 4.24317C13.0088 3.72744 13.7083 3.43771 14.4377 3.43771C15.167 3.43771 15.8665 3.72744 16.3822 4.24317C16.8979 4.7589 17.1877 5.45837 17.1877 6.18771V6.76607C17.1877 6.90817 17.2317 7.04678 17.3138 7.16281C17.3958 7.27885 17.5118 7.36662 17.6457 7.41404C18.4113 7.68357 19.0568 8.21529 19.4679 8.91507C19.8791 9.61484 20.0294 10.4375 19.8922 11.2375C19.755 12.0374 19.3392 12.763 18.7184 13.2858C18.0976 13.8086 17.3118 14.0949 16.5002 14.094ZM17.8752 9.62521C17.8752 9.80755 17.8027 9.98242 17.6738 10.1113C17.5449 10.2403 17.37 10.3127 17.1877 10.3127H16.8439C16.0234 10.3127 15.2365 9.98677 14.6563 9.40657C14.0761 8.82638 13.7502 8.03948 13.7502 7.21896V6.87521C13.7502 6.69288 13.8226 6.51801 13.9515 6.38908C14.0805 6.26015 14.2553 6.18771 14.4377 6.18771C14.62 6.18771 14.7949 6.26015 14.9238 6.38908C15.0527 6.51801 15.1252 6.69288 15.1252 6.87521V7.21896C15.1252 7.6748 15.3062 8.11198 15.6286 8.4343C15.9509 8.75663 16.3881 8.93771 16.8439 8.93771H17.1877C17.37 8.93771 17.5449 9.01015 17.6738 9.13908C17.8027 9.26801 17.8752 9.44288 17.8752 9.62521ZM5.15641 10.3127H4.81266C4.63032 10.3127 4.45545 10.2403 4.32652 10.1113C4.19759 9.98242 4.12516 9.80755 4.12516 9.62521C4.12516 9.44288 4.19759 9.26801 4.32652 9.13908C4.45545 9.01015 4.63032 8.93771 4.81266 8.93771H5.15641C5.61225 8.93771 6.04942 8.75663 6.37175 8.4343C6.69407 8.11198 6.87516 7.6748 6.87516 7.21896V6.87521C6.87516 6.69288 6.94759 6.51801 7.07652 6.38908C7.20545 6.26015 7.38032 6.18771 7.56266 6.18771C7.74499 6.18771 7.91986 6.26015 8.04879 6.38908C8.17772 6.51801 8.25016 6.69288 8.25016 6.87521V7.21896C8.25016 8.03948 7.92421 8.82638 7.34402 9.40657C6.76383 9.98677 5.97692 10.3127 5.15641 10.3127Z" fill="#020202"/>
</svg>
