<svg width="14" height="15" viewBox="0 0 14 15" fill="none" xmlns="http://www.w3.org/2000/svg">
<path d="M1.40104 5.5H12.601M1.40104 9.5H12.601M6.66645 1.5C5.54334 3.29974 4.94792 5.37858 4.94792 7.5C4.94792 9.62142 5.54334 11.7003 6.66645 13.5M7.33333 1.5C8.45644 3.29974 9.05186 5.37858 9.05186 7.5C9.05186 9.62142 8.45644 11.7003 7.33333 13.5M1 7.5C1 8.28793 1.15519 9.06815 1.45672 9.7961C1.75825 10.5241 2.20021 11.1855 2.75736 11.7426C3.31451 12.2998 3.97595 12.7417 4.7039 13.0433C5.43185 13.3448 6.21207 13.5 7 13.5C7.78793 13.5 8.56815 13.3448 9.2961 13.0433C10.0241 12.7417 10.6855 12.2998 11.2426 11.7426C11.7998 11.1855 12.2417 10.5241 12.5433 9.7961C12.8448 9.06815 13 8.28793 13 7.5C13 5.9087 12.3679 4.38258 11.2426 3.25736C10.1174 2.13214 8.5913 1.5 7 1.5C5.4087 1.5 3.88258 2.13214 2.75736 3.25736C1.63214 4.38258 1 5.9087 1 7.5Z" stroke="#020202" stroke-width="1.2" stroke-linecap="round" stroke-linejoin="round"/>
</svg>
