<svg width="12" height="13" viewBox="0 0 12 13" fill="none" xmlns="http://www.w3.org/2000/svg">
<path d="M1.95052 3.1263L2.80052 5.95897M6.53852 9.6983L9.37252 10.5483M5.78385 6.71303L9.62319 2.8737M0.664062 2.16797C0.664062 2.29929 0.689928 2.42933 0.740183 2.55065C0.790438 2.67198 0.864097 2.78222 0.956956 2.87508C1.04981 2.96793 1.16005 3.04159 1.28138 3.09185C1.4027 3.1421 1.53274 3.16797 1.66406 3.16797C1.79538 3.16797 1.92542 3.1421 2.04675 3.09185C2.16807 3.04159 2.27831 2.96793 2.37117 2.87508C2.46403 2.78222 2.53769 2.67198 2.58794 2.55065C2.6382 2.42933 2.66406 2.29929 2.66406 2.16797C2.66406 2.03665 2.6382 1.90661 2.58794 1.78529C2.53769 1.66396 2.46403 1.55372 2.37117 1.46086C2.27831 1.368 2.16807 1.29434 2.04675 1.24409C1.92542 1.19383 1.79538 1.16797 1.66406 1.16797C1.53274 1.16797 1.4027 1.19383 1.28138 1.24409C1.16005 1.29434 1.04981 1.368 0.956956 1.46086C0.864097 1.55372 0.790438 1.66396 0.740183 1.78529C0.689928 1.90661 0.664062 2.03665 0.664062 2.16797ZM9.33073 2.16797C9.33073 2.43318 9.43608 2.68754 9.62362 2.87508C9.81116 3.06261 10.0655 3.16797 10.3307 3.16797C10.5959 3.16797 10.8503 3.06261 11.0378 2.87508C11.2254 2.68754 11.3307 2.43318 11.3307 2.16797C11.3307 1.90275 11.2254 1.6484 11.0378 1.46086C10.8503 1.27333 10.5959 1.16797 10.3307 1.16797C10.0655 1.16797 9.81116 1.27333 9.62362 1.46086C9.43608 1.6484 9.33073 1.90275 9.33073 2.16797ZM9.33073 10.8346C9.33073 11.0998 9.43608 11.3542 9.62362 11.5417C9.81116 11.7293 10.0655 11.8346 10.3307 11.8346C10.5959 11.8346 10.8503 11.7293 11.0378 11.5417C11.2254 11.3542 11.3307 11.0998 11.3307 10.8346C11.3307 10.5694 11.2254 10.3151 11.0378 10.1275C10.8503 9.93999 10.5959 9.83463 10.3307 9.83463C10.0655 9.83463 9.81116 9.93999 9.62362 10.1275C9.43608 10.3151 9.33073 10.5694 9.33073 10.8346ZM0.664062 8.83463C0.664063 9.63028 0.980133 10.3933 1.54274 10.956C2.10535 11.5186 2.86841 11.8346 3.66406 11.8346C4.45971 11.8346 5.22277 11.5186 5.78538 10.956C6.34799 10.3933 6.66406 9.63028 6.66406 8.83463C6.66406 8.03898 6.34799 7.27592 5.78538 6.71331C5.22277 6.15071 4.45971 5.83463 3.66406 5.83463C2.86841 5.83463 2.10535 6.15071 1.54274 6.71331C0.980133 7.27592 0.664063 8.03898 0.664062 8.83463Z" stroke="#020202" stroke-width="1.2" stroke-linecap="round" stroke-linejoin="round"/>
</svg>
