<svg width="17" height="15" viewBox="0 0 17 15" fill="none" xmlns="http://www.w3.org/2000/svg">
<path d="M15.7594 4.15884L12.268 1.01728C12.1519 0.912786 12.0141 0.829896 11.8624 0.773343C11.7107 0.716791 11.5482 0.687683 11.384 0.687683C11.2198 0.687683 11.0572 0.716791 10.9056 0.773343C10.7539 0.829896 10.6161 0.912786 10.5 1.01728L0.866412 9.68751C0.749834 9.7916 0.657407 9.91551 0.594506 10.052C0.531604 10.1885 0.499482 10.335 0.500006 10.4827V13.625C0.500006 13.9234 0.631702 14.2095 0.866123 14.4205C1.10054 14.6315 1.41849 14.75 1.75001 14.75H14.875C15.0408 14.75 15.1997 14.6908 15.3169 14.5853C15.4342 14.4798 15.5 14.3367 15.5 14.1875C15.5 14.0383 15.4342 13.8953 15.3169 13.7898C15.1997 13.6843 15.0408 13.625 14.875 13.625H7.00938L15.7594 5.75001C15.8755 5.64554 15.9676 5.52151 16.0304 5.385C16.0933 5.2485 16.1256 5.10219 16.1256 4.95443C16.1256 4.80667 16.0933 4.66036 16.0304 4.52385C15.9676 4.38734 15.8755 4.26331 15.7594 4.15884ZM5.24141 13.625H1.75001V10.4827L8.62501 4.29525L12.1164 7.43751L5.24141 13.625ZM13 6.64228L9.50938 3.50001L11.3844 1.81251L14.875 4.95478L13 6.64228Z" fill="#020202"/>
</svg>
